<?xml version="1.0" standalone="no"?>
<!DOCTYPE svg PUBLIC "-//W3C//DTD SVG 20010904//EN"
 "http://www.w3.org/TR/2001/REC-SVG-20010904/DTD/svg10.dtd">
<svg version="1.0" xmlns="http://www.w3.org/2000/svg"
 width="512.000000pt" height="512.000000pt" viewBox="0 0 512.000000 512.000000"
 preserveAspectRatio="xMidYMid meet">
<metadata>
Created by potrace 1.11, written by Peter Selinger 2001-2013
</metadata>
<g transform="translate(0.000000,512.000000) scale(0.100000,-0.100000)"
fill="#000000" stroke="none">
<path d="M2320 5110 c-502 -52 -982 -248 -1365 -557 -288 -232 -517 -518 -684
-854 -124 -249 -204 -502 -247 -784 -26 -169 -26 -541 0 -710 71 -465 260
-899 543 -1250 232 -288 518 -517 854 -684 249 -124 502 -204 784 -247 169
-26 541 -26 710 0 465 71 899 260 1250 543 288 232 517 518 684 854 124 249
204 502 247 784 26 169 26 541 0 710 -71 465 -260 899 -543 1250 -232 288
-518 517 -854 684 -246 123 -506 205 -779 246 -124 19 -478 28 -600 15z m585
-1010 c326 -14 481 -50 696 -162 307 -159 459 -366 459 -619 0 -104 -21 -155
-81 -198 -64 -47 -104 -53 -294 -49 -146 3 -176 6 -215 24 -57 26 -126 100
-174 186 -58 104 -138 162 -268 193 -84 21 -835 39 -946 24 -177 -25 -272
-116 -260 -250 15 -151 227 -241 878 -374 251 -51 591 -133 708 -171 127 -41
312 -137 421 -219 163 -123 258 -258 297 -420 12 -55 15 -102 11 -215 -4 -126
-8 -157 -35 -238 -72 -221 -225 -386 -442 -478 -160 -67 -359 -107 -628 -125
-216 -15 -1032 3 -1162 26 -279 48 -548 181 -711 352 -86 90 -131 170 -159
279 -46 177 -12 291 102 348 50 25 58 26 227 26 195 0 228 -6 297 -53 46 -31
65 -55 147 -186 46 -74 98 -111 203 -147 75 -25 94 -27 354 -35 683 -20 827
-11 912 54 71 55 83 78 83 165 0 92 -16 121 -97 174 -117 77 -288 127 -778
227 -399 82 -658 158 -899 264 -139 62 -228 117 -311 194 -144 133 -217 287
-227 478 -23 425 198 732 612 853 282 83 605 101 1280 72z"/>
</g>
</svg>
